<?xml version="1.0" encoding="UTF-8" standalone="no"?>
<svg
   width="24"
   height="24"
   viewBox="0 0 24 24"
   version="1.1"
   id="svg99"
   sodipodi:docname="forecast-feels-like.svg"
   inkscape:version="1.1.2 (b8e25be8, 2022-02-05)"
   xmlns:inkscape="http://www.inkscape.org/namespaces/inkscape"
   xmlns:sodipodi="http://sodipodi.sourceforge.net/DTD/sodipodi-0.dtd"
   xmlns="http://www.w3.org/2000/svg"
   xmlns:svg="http://www.w3.org/2000/svg">
  <defs
     id="defs103" />
  <sodipodi:namedview
     id="namedview101"
     pagecolor="#ffffff"
     bordercolor="#666666"
     borderopacity="1.0"
     inkscape:pageshadow="2"
     inkscape:pageopacity="0.0"
     inkscape:pagecheckerboard="0"
     showgrid="false"
     inkscape:zoom="5.9499394"
     inkscape:cx="42.269338"
     inkscape:cy="19.7481"
     inkscape:window-width="1280"
     inkscape:window-height="719"
     inkscape:window-x="0"
     inkscape:window-y="25"
     inkscape:window-maximized="0"
     inkscape:current-layer="svg99" />
  <path
     d="m 12.029448,2 c 0.827,0 1.5,0.673 1.5,1.5 v 7.525 c 0,1.569 0.514,2.287 1.411,3.05 1.01,0.858 1.589,2.106 1.589,3.425 0,2.481 -2.019,4.5 -4.5,4.5 -2.4810003,0 -4.5000003,-2.019 -4.5000003,-4.5 0,-1.319 0.579,-2.567 1.59,-3.425 0.8960003,-0.761 1.4100003,-1.48 1.4100003,-3.05 V 3.5 c 0,-0.827 0.673,-1.5 1.5,-1.5 z m 0,-2 c -1.933,0 -3.5000003,1.567 -3.5000003,3.5 v 7.525 c 0,0.587 -0.258,1.145 -0.705,1.525 -1.403,1.192 -2.295,2.965 -2.295,4.95 0,3.59 2.909,6.5 6.5000003,6.5 3.591,0 6.5,-2.91 6.5,-6.5 0,-1.985 -0.892,-3.758 -2.295,-4.95 -0.447,-0.38 -0.705,-0.938 -0.705,-1.525 V 3.5 c 0,-1.933 -1.567,-3.5 -3.5,-3.5 z m 2.107,14.718 c -1.012,-0.89 -1.607,-1.734 -1.607,-3.22 V 10 h -1 v 1.498 c 0,1.484 -0.597,2.332 -1.6070003,3.22 -0.794,0.698 -1.393,1.642 -1.393,2.782 0,1.933 1.5670003,3.5 3.5000003,3.5 1.933,0 3.5,-1.567 3.5,-3.5 0,-1.14 -0.599,-2.083 -1.393,-2.782 z"
     id="path97"
     sodipodi:nodetypes="ssscssscsssssscssscssscsccscsssc" />
</svg>
